<svg xmlns="http://www.w3.org/2000/svg" xmlns:xlink="http://www.w3.org/1999/xlink" width="1080" zoomAndPan="magnify" viewBox="0 0 810 1012.49997" height="1350" preserveAspectRatio="xMidYMid meet" version="1.0"><defs><clipPath id="f62d085a6a"><path d="M 0.199219 0 L 809.800781 0 L 809.800781 1012 L 0.199219 1012 Z M 0.199219 0 " clip-rule="nonzero"/></clipPath><clipPath id="b3447b1ea0"><path d="M 0.199219 100 L 809.800781 100 L 809.800781 911 L 0.199219 911 Z M 0.199219 100 " clip-rule="nonzero"/></clipPath><clipPath id="8c6f848d61"><path d="M 0.199219 1.199219 L 809.800781 1.199219 L 809.800781 810.800781 L 0.199219 810.800781 Z M 0.199219 1.199219 " clip-rule="nonzero"/></clipPath><clipPath id="1d3725d661"><rect x="0" width="810" y="0" height="811"/></clipPath></defs><g clip-path="url(#f62d085a6a)"><path fill="#ffffff" d="M 0.199219 0 L 809.800781 0 L 809.800781 1012 L 0.199219 1012 Z M 0.199219 0 " fill-opacity="1" fill-rule="nonzero"/><path fill="#ffffff" d="M 0.199219 0 L 809.800781 0 L 809.800781 1012 L 0.199219 1012 Z M 0.199219 0 " fill-opacity="1" fill-rule="nonzero"/></g><g clip-path="url(#b3447b1ea0)"><g transform="matrix(1, 0, 0, 1, 0.000000000000000028, 100)"><g clip-path="url(#1d3725d661)"><g clip-path="url(#8c6f848d61)"><path fill="#ffffff" d="M 0.199219 1.199219 L 809.800781 1.199219 L 809.800781 810.800781 L 0.199219 810.800781 Z M 0.199219 1.199219 " fill-opacity="1" fill-rule="nonzero"/></g><path stroke-linecap="butt" transform="matrix(19.746346, 0, 0, 19.746346, 0.199913, 1.200017)" fill-opacity="1" fill="#ffffff" fill-rule="nonzero" stroke-linejoin="miter" d="M 1.999939 2.500027 L 9.000048 2.500027 M 11.000022 2.500027 L 12.999997 2.500027 M 14.999971 2.500027 L 15.999958 2.500027 M 16.999945 2.500027 L 18.99992 2.500027 M 23.000067 2.500027 L 24.000054 2.500027 M 25.000041 2.500027 L 26.000028 2.500027 M 27.000016 2.500027 L 28.000003 2.500027 M 29.999977 2.500027 L 30.999964 2.500027 M 31.999952 2.500027 L 39.00006 2.500027 M 1.999939 3.500014 L 2.999926 3.500014 M 8.00006 3.500014 L 9.000048 3.500014 M 12.999997 3.500014 L 13.999984 3.500014 M 14.999971 3.500014 L 15.999958 3.500014 M 16.999945 3.500014 L 17.999933 3.500014 M 18.99992 3.500014 L 21.000092 3.500014 M 22.000079 3.500014 L 23.000067 3.500014 M 27.000016 3.500014 L 30.999964 3.500014 M 31.999952 3.500014 L 32.999939 3.500014 M 38.000073 3.500014 L 39.00006 3.500014 M 1.999939 4.500001 L 2.999926 4.500001 M 3.999914 4.500001 L 7.000073 4.500001 M 8.00006 4.500001 L 9.000048 4.500001 M 10.000035 4.500001 L 12.000009 4.500001 M 12.999997 4.500001 L 13.999984 4.500001 M 14.999971 4.500001 L 15.999958 4.500001 M 16.999945 4.500001 L 18.99992 4.500001 M 23.000067 4.500001 L 26.000028 4.500001 M 28.000003 4.500001 L 28.99999 4.500001 M 29.999977 4.500001 L 30.999964 4.500001 M 31.999952 4.500001 L 32.999939 4.500001 M 33.999926 4.500001 L 37.000086 4.500001 M 38.000073 4.500001 L 39.00006 4.500001 M 1.999939 5.499988 L 2.999926 5.499988 M 3.999914 5.499988 L 7.000073 5.499988 M 8.00006 5.499988 L 9.000048 5.499988 M 10.000035 5.499988 L 12.000009 5.499988 M 12.999997 5.499988 L 14.999971 5.499988 M 15.999958 5.499988 L 16.999945 5.499988 M 17.999933 5.499988 L 21.000092 5.499988 M 22.000079 5.499988 L 23.000067 5.499988 M 24.000054 5.499988 L 26.000028 5.499988 M 27.000016 5.499988 L 28.99999 5.499988 M 31.999952 5.499988 L 32.999939 5.499988 M 33.999926 5.499988 L 37.000086 5.499988 M 38.000073 5.499988 L 39.00006 5.499988 M 1.999939 6.499975 L 2.999926 6.499975 M 3.999914 6.499975 L 7.000073 6.499975 M 8.00006 6.499975 L 9.000048 6.499975 M 10.000035 6.499975 L 11.000022 6.499975 M 13.999984 6.499975 L 15.999958 6.499975 M 16.999945 6.499975 L 26.000028 6.499975 M 27.000016 6.499975 L 28.000003 6.499975 M 29.999977 6.499975 L 30.999964 6.499975 M 31.999952 6.499975 L 32.999939 6.499975 M 33.999926 6.499975 L 37.000086 6.499975 M 38.000073 6.499975 L 39.00006 6.499975 M 1.999939 7.499963 L 2.999926 7.499963 M 8.00006 7.499963 L 9.000048 7.499963 M 10.000035 7.499963 L 12.000009 7.499963 M 12.999997 7.499963 L 13.999984 7.499963 M 14.999971 7.499963 L 15.999958 7.499963 M 16.999945 7.499963 L 17.999933 7.499963 M 18.99992 7.499963 L 19.999907 7.499963 M 23.000067 7.499963 L 25.000041 7.499963 M 27.000016 7.499963 L 30.999964 7.499963 M 31.999952 7.499963 L 32.999939 7.499963 M 38.000073 7.499963 L 39.00006 7.499963 M 1.999939 8.49995 L 9.000048 8.49995 M 10.000035 8.49995 L 11.000022 8.49995 M 12.000009 8.49995 L 12.999997 8.49995 M 13.999984 8.49995 L 14.999971 8.49995 M 15.999958 8.49995 L 16.999945 8.49995 M 17.999933 8.49995 L 18.99992 8.49995 M 19.999907 8.49995 L 21.000092 8.49995 M 22.000079 8.49995 L 23.000067 8.49995 M 24.000054 8.49995 L 25.000041 8.49995 M 26.000028 8.49995 L 27.000016 8.49995 M 28.000003 8.49995 L 28.99999 8.49995 M 29.999977 8.49995 L 30.999964 8.49995 M 31.999952 8.49995 L 39.00006 8.49995 M 10.000035 9.499937 L 12.000009 9.499937 M 15.999958 9.499937 L 17.999933 9.499937 M 18.99992 9.499937 L 21.000092 9.499937 M 23.000067 9.499937 L 26.000028 9.499937 M 29.999977 9.499937 L 30.999964 9.499937 M 1.999939 10.499924 L 2.999926 10.499924 M 3.999914 10.499924 L 9.000048 10.499924 M 12.000009 10.499924 L 12.999997 10.499924 M 13.999984 10.499924 L 16.999945 10.499924 M 17.999933 10.499924 L 18.99992 10.499924 M 24.000054 10.499924 L 26.000028 10.499924 M 27.000016 10.499924 L 28.000003 10.499924 M 31.999952 10.499924 L 37.000086 10.499924 M 1.999939 11.499912 L 2.999926 11.499912 M 6.000086 11.499912 L 8.00006 11.499912 M 9.000048 11.499912 L 12.000009 11.499912 M 12.999997 11.499912 L 14.999971 11.499912 M 15.999958 11.499912 L 17.999933 11.499912 M 18.99992 11.499912 L 21.000092 11.499912 M 22.000079 11.499912 L 24.000054 11.499912 M 29.999977 11.499912 L 30.999964 11.499912 M 32.999939 11.499912 L 33.999926 11.499912 M 37.000086 11.499912 L 38.000073 11.499912 M 1.999939 12.500097 L 3.999914 12.500097 M 5.000099 12.500097 L 6.000086 12.500097 M 8.00006 12.500097 L 12.999997 12.500097 M 13.999984 12.500097 L 15.999958 12.500097 M 16.999945 12.500097 L 19.999907 12.500097 M 21.000092 12.500097 L 22.000079 12.500097 M 23.000067 12.500097 L 25.000041 12.500097 M 26.000028 12.500097 L 30.999964 12.500097 M 31.999952 12.500097 L 32.999939 12.500097 M 33.999926 12.500097 L 36.000098 12.500097 M 37.000086 12.500097 L 39.00006 12.500097 M 1.999939 13.500084 L 2.999926 13.500084 M 6.000086 13.500084 L 7.000073 13.500084 M 9.000048 13.500084 L 11.000022 13.500084 M 12.000009 13.500084 L 12.999997 13.500084 M 13.999984 13.500084 L 17.999933 13.500084 M 21.000092 13.500084 L 24.000054 13.500084 M 26.000028 13.500084 L 27.000016 13.500084 M 28.000003 13.500084 L 29.999977 13.500084 M 31.999952 13.500084 L 32.999939 13.500084 M 34.999913 13.500084 L 36.000098 13.500084 M 38.000073 13.500084 L 39.00006 13.500084 M 1.999939 14.500071 L 6.000086 14.500071 M 8.00006 14.500071 L 10.000035 14.500071 M 11.000022 14.500071 L 12.000009 14.500071 M 13.999984 14.500071 L 14.999971 14.500071 M 16.999945 14.500071 L 19.999907 14.500071 M 21.000092 14.500071 L 23.000067 14.500071 M 24.000054 14.500071 L 28.99999 14.500071 M 30.999964 14.500071 L 34.999913 14.500071 M 36.000098 14.500071 L 39.00006 14.500071 M 1.999939 15.500058 L 3.999914 15.500058 M 7.000073 15.500058 L 8.00006 15.500058 M 11.000022 15.500058 L 12.000009 15.500058 M 12.999997 15.500058 L 13.999984 15.500058 M 17.999933 15.500058 L 18.99992 15.500058 M 19.999907 15.500058 L 23.000067 15.500058 M 25.000041 15.500058 L 28.000003 15.500058 M 29.999977 15.500058 L 30.999964 15.500058 M 32.999939 15.500058 L 33.999926 15.500058 M 5.000099 16.500045 L 7.000073 16.500045 M 8.00006 16.500045 L 10.000035 16.500045 M 12.999997 16.500045 L 14.999971 16.500045 M 15.999958 16.500045 L 17.999933 16.500045 M 19.999907 16.500045 L 21.000092 16.500045 M 23.000067 16.500045 L 25.000041 16.500045 M 27.000016 16.500045 L 36.000098 16.500045 M 37.000086 16.500045 L 39.00006 16.500045 M 1.999939 17.500033 L 3.999914 17.500033 M 6.000086 17.500033 L 8.00006 17.500033 M 11.000022 17.500033 L 12.000009 17.500033 M 13.999984 17.500033 L 18.99992 17.500033 M 23.000067 17.500033 L 24.000054 17.500033 M 29.999977 17.500033 L 34.999913 17.500033 M 37.000086 17.500033 L 39.00006 17.500033 M 1.999939 18.50002 L 2.999926 18.50002 M 3.999914 18.50002 L 5.000099 18.50002 M 8.00006 18.50002 L 9.000048 18.50002 M 13.999984 18.50002 L 16.999945 18.50002 M 19.999907 18.50002 L 21.000092 18.50002 M 22.000079 18.50002 L 23.000067 18.50002 M 24.000054 18.50002 L 29.999977 18.50002 M 30.999964 18.50002 L 34.999913 18.50002 M 36.000098 18.50002 L 37.000086 18.50002 M 6.000086 19.500007 L 8.00006 19.500007 M 9.000048 19.500007 L 11.000022 19.500007 M 12.000009 19.500007 L 12.999997 19.500007 M 13.999984 19.500007 L 14.999971 19.500007 M 15.999958 19.500007 L 18.99992 19.500007 M 25.000041 19.500007 L 26.000028 19.500007 M 27.000016 19.500007 L 28.99999 19.500007 M 29.999977 19.500007 L 30.999964 19.500007 M 32.999939 19.500007 L 33.999926 19.500007 M 36.000098 19.500007 L 38.000073 19.500007 M 3.999914 20.499994 L 5.000099 20.499994 M 6.000086 20.499994 L 10.000035 20.499994 M 11.000022 20.499994 L 12.000009 20.499994 M 13.999984 20.499994 L 16.999945 20.499994 M 22.000079 20.499994 L 23.000067 20.499994 M 24.000054 20.499994 L 25.000041 20.499994 M 26.000028 20.499994 L 27.000016 20.499994 M 28.000003 20.499994 L 31.999952 20.499994 M 33.999926 20.499994 L 34.999913 20.499994 M 37.000086 20.499994 L 39.00006 20.499994 M 2.999926 21.499982 L 3.999914 21.499982 M 5.000099 21.499982 L 7.000073 21.499982 M 9.000048 21.499982 L 11.000022 21.499982 M 12.000009 21.499982 L 12.999997 21.499982 M 13.999984 21.499982 L 14.999971 21.499982 M 17.999933 21.499982 L 18.99992 21.499982 M 19.999907 21.499982 L 21.000092 21.499982 M 23.000067 21.499982 L 25.000041 21.499982 M 31.999952 21.499982 L 34.999913 21.499982 M 38.000073 21.499982 L 39.00006 21.499982 M 1.999939 22.499969 L 3.999914 22.499969 M 6.000086 22.499969 L 7.000073 22.499969 M 8.00006 22.499969 L 9.000048 22.499969 M 10.000035 22.499969 L 11.000022 22.499969 M 12.000009 22.499969 L 12.999997 22.499969 M 13.999984 22.499969 L 14.999971 22.499969 M 18.99992 22.499969 L 19.999907 22.499969 M 22.000079 22.499969 L 23.000067 22.499969 M 24.000054 22.499969 L 25.000041 22.499969 M 26.000028 22.499969 L 29.999977 22.499969 M 30.999964 22.499969 L 32.999939 22.499969 M 33.999926 22.499969 L 37.000086 22.499969 M 1.999939 23.499956 L 5.000099 23.499956 M 12.000009 23.499956 L 16.999945 23.499956 M 17.999933 23.499956 L 23.000067 23.499956 M 24.000054 23.499956 L 26.000028 23.499956 M 29.999977 23.499956 L 30.999964 23.499956 M 34.999913 23.499956 L 36.000098 23.499956 M 1.999939 24.499943 L 2.999926 24.499943 M 3.999914 24.499943 L 6.000086 24.499943 M 7.000073 24.499943 L 10.000035 24.499943 M 11.000022 24.499943 L 13.999984 24.499943 M 15.999958 24.499943 L 19.999907 24.499943 M 22.000079 24.499943 L 24.000054 24.499943 M 27.000016 24.499943 L 29.999977 24.499943 M 30.999964 24.499943 L 36.000098 24.499943 M 37.000086 24.499943 L 39.00006 24.499943 M 1.999939 25.49993 L 2.999926 25.49993 M 6.000086 25.49993 L 7.000073 25.49993 M 9.000048 25.49993 L 11.000022 25.49993 M 12.999997 25.49993 L 13.999984 25.49993 M 14.999971 25.49993 L 17.999933 25.49993 M 18.99992 25.49993 L 21.000092 25.49993 M 23.000067 25.49993 L 26.000028 25.49993 M 28.000003 25.49993 L 28.99999 25.49993 M 29.999977 25.49993 L 30.999964 25.49993 M 31.999952 25.49993 L 34.999913 25.49993 M 37.000086 25.49993 L 38.000073 25.49993 M 1.999939 26.499918 L 5.000099 26.499918 M 7.000073 26.499918 L 10.000035 26.499918 M 12.000009 26.499918 L 12.999997 26.499918 M 13.999984 26.499918 L 15.999958 26.499918 M 17.999933 26.499918 L 18.99992 26.499918 M 24.000054 26.499918 L 26.000028 26.499918 M 27.000016 26.499918 L 28.99999 26.499918 M 29.999977 26.499918 L 32.999939 26.499918 M 33.999926 26.499918 L 34.999913 26.499918 M 36.000098 26.499918 L 38.000073 26.499918 M 1.999939 27.499905 L 3.999914 27.499905 M 6.000086 27.499905 L 7.000073 27.499905 M 10.000035 27.499905 L 11.000022 27.499905 M 12.000009 27.499905 L 12.999997 27.499905 M 14.999971 27.499905 L 17.999933 27.499905 M 19.999907 27.499905 L 21.000092 27.499905 M 22.000079 27.499905 L 26.000028 27.499905 M 29.999977 27.499905 L 31.999952 27.499905 M 34.999913 27.499905 L 36.000098 27.499905 M 1.999939 28.50009 L 2.999926 28.50009 M 3.999914 28.50009 L 6.000086 28.50009 M 7.000073 28.50009 L 9.000048 28.50009 M 11.000022 28.50009 L 12.999997 28.50009 M 14.999971 28.50009 L 15.999958 28.50009 M 16.999945 28.50009 L 18.99992 28.50009 M 21.000092 28.50009 L 22.000079 28.50009 M 26.000028 28.50009 L 27.000016 28.50009 M 28.000003 28.50009 L 30.999964 28.50009 M 31.999952 28.50009 L 33.999926 28.50009 M 36.000098 28.50009 L 39.00006 28.50009 M 1.999939 29.500077 L 2.999926 29.500077 M 5.000099 29.500077 L 8.00006 29.500077 M 9.000048 29.500077 L 11.000022 29.500077 M 13.999984 29.500077 L 14.999971 29.500077 M 16.999945 29.500077 L 17.999933 29.500077 M 21.000092 29.500077 L 24.000054 29.500077 M 28.000003 29.500077 L 29.999977 29.500077 M 30.999964 29.500077 L 34.999913 29.500077 M 38.000073 29.500077 L 39.00006 29.500077 M 1.999939 30.500064 L 2.999926 30.500064 M 6.000086 30.500064 L 12.000009 30.500064 M 14.999971 30.500064 L 17.999933 30.500064 M 18.99992 30.500064 L 19.999907 30.500064 M 21.000092 30.500064 L 22.000079 30.500064 M 24.000054 30.500064 L 28.000003 30.500064 M 29.999977 30.500064 L 37.000086 30.500064 M 10.000035 31.500052 L 11.000022 31.500052 M 12.000009 31.500052 L 13.999984 31.500052 M 15.999958 31.500052 L 16.999945 31.500052 M 17.999933 31.500052 L 18.99992 31.500052 M 21.000092 31.500052 L 24.000054 31.500052 M 25.000041 31.500052 L 26.000028 31.500052 M 28.99999 31.500052 L 30.999964 31.500052 M 33.999926 31.500052 L 36.000098 31.500052 M 37.000086 31.500052 L 38.000073 31.500052 M 1.999939 32.500039 L 9.000048 32.500039 M 12.000009 32.500039 L 12.999997 32.500039 M 13.999984 32.500039 L 15.999958 32.500039 M 16.999945 32.500039 L 18.99992 32.500039 M 19.999907 32.500039 L 21.000092 32.500039 M 22.000079 32.500039 L 25.000041 32.500039 M 28.000003 32.500039 L 28.99999 32.500039 M 29.999977 32.500039 L 30.999964 32.500039 M 31.999952 32.500039 L 32.999939 32.500039 M 33.999926 32.500039 L 34.999913 32.500039 M 36.000098 32.500039 L 37.000086 32.500039 M 38.000073 32.500039 L 39.00006 32.500039 M 1.999939 33.500026 L 2.999926 33.500026 M 8.00006 33.500026 L 9.000048 33.500026 M 10.000035 33.500026 L 11.000022 33.500026 M 12.999997 33.500026 L 14.999971 33.500026 M 16.999945 33.500026 L 17.999933 33.500026 M 21.000092 33.500026 L 24.000054 33.500026 M 25.000041 33.500026 L 27.000016 33.500026 M 28.000003 33.500026 L 30.999964 33.500026 M 33.999926 33.500026 L 36.000098 33.500026 M 37.000086 33.500026 L 38.000073 33.500026 M 1.999939 34.500013 L 2.999926 34.500013 M 3.999914 34.500013 L 7.000073 34.500013 M 8.00006 34.500013 L 9.000048 34.500013 M 10.000035 34.500013 L 12.000009 34.500013 M 13.999984 34.500013 L 17.999933 34.500013 M 19.999907 34.500013 L 22.000079 34.500013 M 24.000054 34.500013 L 25.000041 34.500013 M 26.000028 34.500013 L 34.999913 34.500013 M 36.000098 34.500013 L 37.000086 34.500013 M 38.000073 34.500013 L 39.00006 34.500013 M 1.999939 35.500001 L 2.999926 35.500001 M 3.999914 35.500001 L 7.000073 35.500001 M 8.00006 35.500001 L 9.000048 35.500001 M 10.000035 35.500001 L 14.999971 35.500001 M 15.999958 35.500001 L 18.99992 35.500001 M 23.000067 35.500001 L 24.000054 35.500001 M 25.000041 35.500001 L 26.000028 35.500001 M 27.000016 35.500001 L 28.000003 35.500001 M 30.999964 35.500001 L 32.999939 35.500001 M 33.999926 35.500001 L 34.999913 35.500001 M 36.000098 35.500001 L 37.000086 35.500001 M 38.000073 35.500001 L 39.00006 35.500001 M 1.999939 36.499988 L 2.999926 36.499988 M 3.999914 36.499988 L 7.000073 36.499988 M 8.00006 36.499988 L 9.000048 36.499988 M 10.000035 36.499988 L 11.000022 36.499988 M 12.000009 36.499988 L 14.999971 36.499988 M 22.000079 36.499988 L 25.000041 36.499988 M 27.000016 36.499988 L 31.999952 36.499988 M 36.000098 36.499988 L 39.00006 36.499988 M 1.999939 37.499975 L 2.999926 37.499975 M 8.00006 37.499975 L 9.000048 37.499975 M 12.999997 37.499975 L 14.999971 37.499975 M 15.999958 37.499975 L 16.999945 37.499975 M 17.999933 37.499975 L 18.99992 37.499975 M 19.999907 37.499975 L 21.000092 37.499975 M 22.000079 37.499975 L 25.000041 37.499975 M 26.000028 37.499975 L 27.000016 37.499975 M 28.99999 37.499975 L 32.999939 37.499975 M 33.999926 37.499975 L 34.999913 37.499975 M 38.000073 37.499975 L 39.00006 37.499975 M 1.999939 38.499962 L 9.000048 38.499962 M 10.000035 38.499962 L 12.999997 38.499962 M 13.999984 38.499962 L 14.999971 38.499962 M 15.999958 38.499962 L 16.999945 38.499962 M 18.99992 38.499962 L 19.999907 38.499962 M 26.000028 38.499962 L 28.99999 38.499962 M 33.999926 38.499962 L 39.00006 38.499962 " stroke="#000000" stroke-width="1" stroke-opacity="1" stroke-miterlimit="4"/></g></g></g></svg>